<svg xmlns="http://www.w3.org/2000/svg" width="557.618" height="331.037" viewBox="0 0 557.618 331.037">
  <g id="undraw_reviewed_docs_neeb_1_" data-name="undraw_reviewed_docs_neeb (1)" transform="translate(0 -204.538)">
    <ellipse id="Ellipse_169" data-name="Ellipse 169" cx="106.501" cy="11.005" rx="106.501" ry="11.005" transform="translate(0 451.54)" fill="#e6e6e6"/>
    <rect id="Rectangle_706" data-name="Rectangle 706" width="129.221" height="160.461" transform="translate(41.89 302.135)" fill="#e6e6e6"/>
    <rect id="Rectangle_707" data-name="Rectangle 707" width="92.301" height="4.26" transform="translate(60.561 358.174)" fill="#fff"/>
    <rect id="Rectangle_708" data-name="Rectangle 708" width="92.301" height="4.26" transform="translate(60.561 373.084)" fill="#fff"/>
    <rect id="Rectangle_709" data-name="Rectangle 709" width="92.301" height="4.26" transform="translate(60.561 387.994)" fill="#fff"/>
    <rect id="Rectangle_710" data-name="Rectangle 710" width="92.301" height="4.26" transform="translate(60.561 402.904)" fill="#fff"/>
    <path id="Tracé_642" data-name="Tracé 642" d="M308.345,417.685a25.283,25.283,0,1,1-3.918-13.544,25.283,25.283,0,0,1,3.918,13.544Z" transform="translate(-176.49 -182.212)" fill="#e6e6e6"/>
    <path id="Tracé_643" data-name="Tracé 643" d="M304.427,404.141l-24.958,24.953c-1.569-2.428-10.308-13.714-10.308-13.714a35.368,35.368,0,0,1,3.577-3.158l7.247,9.662L301.5,400.366A25.247,25.247,0,0,1,304.427,404.141Z" transform="translate(-176.49 -182.212)" fill="#fff"/>
    <ellipse id="Ellipse_170" data-name="Ellipse 170" cx="106.501" cy="11.005" rx="106.501" ry="11.005" transform="translate(344.616 445.083)" fill="#e6e6e6"/>
    <rect id="Rectangle_711" data-name="Rectangle 711" width="129.221" height="160.461" transform="translate(386.506 295.679)" fill="#e6e6e6"/>
    <rect id="Rectangle_712" data-name="Rectangle 712" width="92.301" height="4.26" transform="translate(405.177 385.002)" fill="#fff"/>
    <rect id="Rectangle_713" data-name="Rectangle 713" width="92.301" height="4.26" transform="translate(405.177 399.912)" fill="#fff"/>
    <rect id="Rectangle_714" data-name="Rectangle 714" width="92.301" height="4.26" transform="translate(405.177 414.822)" fill="#fff"/>
    <rect id="Rectangle_715" data-name="Rectangle 715" width="92.301" height="4.26" transform="translate(405.177 429.732)" fill="#fff"/>
    <path id="Tracé_644" data-name="Tracé 644" d="M609.942,535.005H580.617a102.568,102.568,0,0,1,0-34.965h29.326a62.914,62.914,0,0,0,0,34.965Z" transform="translate(-176.49 -182.212)" fill="#fff"/>
    <rect id="Rectangle_716" data-name="Rectangle 716" width="53.96" height="3.55" transform="translate(445.647 321.101)" fill="#fff"/>
    <rect id="Rectangle_717" data-name="Rectangle 717" width="53.96" height="3.55" transform="translate(445.647 333.882)" fill="#fff"/>
    <rect id="Rectangle_718" data-name="Rectangle 718" width="53.96" height="3.55" transform="translate(445.647 346.662)" fill="#fff"/>
    <rect id="Rectangle_719" data-name="Rectangle 719" width="53.96" height="3.55" transform="translate(445.647 359.442)" fill="#fff"/>
    <path id="Tracé_645" data-name="Tracé 645" d="M652.961,412.061a25.283,25.283,0,1,1-3.918-13.544A25.283,25.283,0,0,1,652.961,412.061Z" transform="translate(-176.49 -182.212)" fill="#e6e6e6"/>
    <path id="Tracé_646" data-name="Tracé 646" d="M649.042,398.517,624.084,423.47c-1.569-2.428-10.308-13.714-10.308-13.714a35.362,35.362,0,0,1,3.577-3.158l7.247,9.662,21.519-21.519a25.251,25.251,0,0,1,2.923,3.775Z" transform="translate(-176.49 -182.212)" fill="#fff"/>
    <ellipse id="Ellipse_171" data-name="Ellipse 171" cx="124.816" cy="12.898" rx="124.816" ry="12.898" transform="translate(155.965 509.78)" fill="#3f3d56"/>
    <rect id="Rectangle_720" data-name="Rectangle 720" width="151.444" height="188.057" transform="translate(204.227 337.533)" fill="#3846ff"/>
    <rect id="Rectangle_721" data-name="Rectangle 721" width="108.174" height="4.993" transform="translate(225.862 377.474)" fill="#fff"/>
    <rect id="Rectangle_722" data-name="Rectangle 722" width="108.174" height="4.993" transform="translate(225.862 394.949)" fill="#fff"/>
    <rect id="Rectangle_723" data-name="Rectangle 723" width="108.174" height="4.993" transform="translate(225.862 412.423)" fill="#fff"/>
    <rect id="Rectangle_724" data-name="Rectangle 724" width="108.174" height="4.993" transform="translate(225.862 429.897)" fill="#fff"/>
    <rect id="Rectangle_725" data-name="Rectangle 725" width="108.174" height="4.993" transform="translate(225.862 447.372)" fill="#fff"/>
    <rect id="Rectangle_726" data-name="Rectangle 726" width="56.583" height="19.971" transform="translate(251.657 465.678)" fill="#fff"/>
    <path id="Tracé_647" data-name="Tracé 647" d="M494.981,438.937a37.994,37.994,0,1,1-5.888-20.353,37.994,37.994,0,0,1,5.888,20.353Z" transform="translate(-176.49 -182.212)" fill="#3846ff"/>
    <path id="Tracé_648" data-name="Tracé 648" d="M489.092,418.585l-37.5,37.5c-2.357-3.649-15.49-20.609-15.49-20.609a53.143,53.143,0,0,1,5.376-4.745l10.89,14.52L484.7,412.912a37.937,37.937,0,0,1,4.392,5.673Z" transform="translate(-176.49 -182.212)" fill="#fff"/>
  </g>
</svg>
