<svg xmlns="http://www.w3.org/2000/svg" width="18.225" height="18.225" viewBox="0 0 18.225 18.225">
  <path id="Icon_awesome-dribbble" data-name="Icon awesome-dribbble" d="M9.675.563a9.112,9.112,0,1,0,9.112,9.112A9.123,9.123,0,0,0,9.675.563Zm6.025,4.2a7.746,7.746,0,0,1,1.758,4.848,18.189,18.189,0,0,0-5.42-.251c-.211-.516-.411-.97-.684-1.529A10.368,10.368,0,0,0,15.7,4.765Zm-.865-.9a8.788,8.788,0,0,1-4.079,2.812,41.546,41.546,0,0,0-2.9-4.556,7.763,7.763,0,0,1,6.983,1.745ZM6.366,2.643a49.663,49.663,0,0,1,2.886,4.5,29.032,29.032,0,0,1-7.2.948A7.812,7.812,0,0,1,6.366,2.643ZM1.892,9.687c0-.08,0-.159,0-.238a28.711,28.711,0,0,0,8-1.108c.223.436.436.879.631,1.321a12.056,12.056,0,0,0-6.633,5.229A7.752,7.752,0,0,1,1.892,9.687ZM4.9,15.827a10.947,10.947,0,0,1,6.157-4.878,32.353,32.353,0,0,1,1.66,5.9A7.768,7.768,0,0,1,4.9,15.827Zm9.126.312a33.593,33.593,0,0,0-1.512-5.549,11.424,11.424,0,0,1,4.848.333,7.8,7.8,0,0,1-3.336,5.217Z" transform="translate(-0.563 -0.563)"/>
</svg>
