<svg xmlns="http://www.w3.org/2000/svg" width="16.47" height="16.466" viewBox="0 0 16.47 16.466">
  <path id="Icon_awesome-instagram" data-name="Icon awesome-instagram" d="M8.232,6.249a4.222,4.222,0,1,0,4.222,4.222A4.215,4.215,0,0,0,8.232,6.249Zm0,6.967a2.745,2.745,0,1,1,2.745-2.745,2.75,2.75,0,0,1-2.745,2.745Zm5.379-7.139a.985.985,0,1,1-.985-.985A.982.982,0,0,1,13.611,6.076Zm2.8,1a4.873,4.873,0,0,0-1.33-3.45,4.905,4.905,0,0,0-3.45-1.33c-1.359-.077-5.434-.077-6.794,0a4.9,4.9,0,0,0-3.45,1.326,4.889,4.889,0,0,0-1.33,3.45c-.077,1.359-.077,5.434,0,6.794a4.873,4.873,0,0,0,1.33,3.45,4.911,4.911,0,0,0,3.45,1.33c1.359.077,5.434.077,6.794,0a4.873,4.873,0,0,0,3.45-1.33,4.905,4.905,0,0,0,1.33-3.45c.077-1.359.077-5.431,0-6.79Zm-1.756,8.249a2.779,2.779,0,0,1-1.565,1.565c-1.084.43-3.656.331-4.854.331s-3.774.1-4.854-.331a2.779,2.779,0,0,1-1.565-1.565c-.43-1.084-.331-3.656-.331-4.854s-.1-3.774.331-4.854A2.779,2.779,0,0,1,3.378,4.052c1.084-.43,3.656-.331,4.854-.331s3.774-.1,4.854.331a2.779,2.779,0,0,1,1.565,1.565c.43,1.084.331,3.656.331,4.854S15.081,14.244,14.651,15.325Z" transform="translate(0.005 -2.238)"/>
</svg>
