<svg xmlns="http://www.w3.org/2000/svg" width="18.812" height="15.279" viewBox="0 0 18.812 15.279">
  <path id="Icon_awesome-twitter" data-name="Icon awesome-twitter" d="M16.879,7.189c.012.167.012.334.012.5A10.9,10.9,0,0,1,5.921,18.66,10.9,10.9,0,0,1,0,16.929a7.976,7.976,0,0,0,.931.048A7.722,7.722,0,0,0,5.718,15.33a3.862,3.862,0,0,1-3.6-2.674,4.862,4.862,0,0,0,.728.06,4.078,4.078,0,0,0,1.015-.131A3.856,3.856,0,0,1,.764,8.8V8.752a3.883,3.883,0,0,0,1.743.489A3.861,3.861,0,0,1,1.313,4.085,10.959,10.959,0,0,0,9.263,8.12a4.353,4.353,0,0,1-.1-.883A3.859,3.859,0,0,1,15.84,4.6a7.591,7.591,0,0,0,2.447-.931,3.845,3.845,0,0,1-1.7,2.125,7.729,7.729,0,0,0,2.22-.6,8.288,8.288,0,0,1-1.934,1.993Z" transform="translate(0 -3.381)"/>
</svg>
