<svg xmlns="http://www.w3.org/2000/svg" width="468.431" height="456.596" viewBox="0 0 468.431 456.596">
  <defs>
    <style>
      .cls-1 {
        fill: #f2f2f2;
      }

      .cls-14, .cls-15, .cls-2, .cls-6 {
        fill: none;
        stroke-linecap: round;
        stroke-linejoin: round;
      }

      .cls-15, .cls-2 {
        stroke: #a4a4a4;
      }

      .cls-2 {
        stroke-width: 3px;
      }

      .cls-3 {
        fill: #6bd5e1;
      }

      .cls-4 {
        fill: #e49d75;
      }

      .cls-5 {
        fill: #d38d6a;
      }

      .cls-6 {
        stroke: #e0e0e0;
        stroke-width: 2px;
      }

      .cls-7 {
        fill: #e0e0e0;
      }

      .cls-8 {
        fill: #5fc5d1;
      }

      .cls-9 {
        fill: #ffc78e;
      }

      .cls-10 {
        fill: #ffd98e;
      }

      .cls-11 {
        fill: #fd8369;
      }

      .cls-12 {
        fill: #a4a4a4;
      }

      .cls-13 {
        fill: #ffe4ad;
      }

      .cls-14 {
        stroke: #6bd5e1;
      }

      .cls-14, .cls-15 {
        stroke-width: 6px;
      }
    </style>
  </defs>
  <g id="Layer_2" data-name="Layer 2" transform="translate(0 -0.007)">
    <g id="vector" transform="translate(0 0.006)">
      <path id="Tracé_188" data-name="Tracé 188" class="cls-1" d="M349.106,120.944c37.3,49.268,82.79,89.473,80.323,126.25-2.466,36.684-52.875,69.854-108.74,99.88-55.951,30.063-117.273,56.981-165.246,40.118S72.827,309.507,62.8,248.1s4.334-123.555,40.236-172.466S196.2-9.178,239.485,2.086,311.805,71.589,349.106,120.944Z" transform="translate(-22.887 -0.006)"/>
      <line id="Ligne_43" data-name="Ligne 43" class="cls-2" y2="154.161" transform="translate(254.133 250.578)"/>
      <rect id="Rectangle_462" data-name="Rectangle 462" class="cls-3" width="19.298" height="27.14" rx="9.649" transform="translate(309.56 88.902)"/>
      <path id="Tracé_189" data-name="Tracé 189" class="cls-4" d="M393.762,679.1c-.684,1.708-5.352,12.183-5.352,12.183l15.081,5.746,4.5-14.97Z" transform="translate(-148.938 -260.409)"/>
      <path id="Tracé_190" data-name="Tracé 190" class="cls-4" d="M525.077,655.08l3.1,11.443-13.576,6.64-8.952-9.316Z" transform="translate(-193.895 -251.199)"/>
      <path id="Tracé_191" data-name="Tracé 191" class="cls-5" d="M450.678,299.44c-1.547,1.788-14.365,17.165-15.284,18.379s-38.448,12.621-40.427,13.151-9.094,3.625-11.1,3.625-8.434-2.127-11.1-1.689-11.166,5.413-10.346,7.4,92.611-4.643,92.611-4.643l10.006-31.142Z" transform="translate(-138.953 -114.826)"/>
      <line id="Ligne_44" data-name="Ligne 44" class="cls-6" x1="23.324" y2="120.152" transform="translate(306.404 328.275)"/>
      <path id="Tracé_192" data-name="Tracé 192" class="cls-7" d="M615.775,214.45h52.752L618.5,410.511H521.82V397.748L575.953,361.8Z" transform="translate(-200.095 -82.236)"/>
      <path id="Tracé_193" data-name="Tracé 193" class="cls-8" d="M478.855,511.4c2.676,5.469,25.278,82.241,25.864,86.7-2.879,3.021-15.364,9.741-20.7,10.179-9.032-7.109-34.341-66.8-34.341-66.8S458.3,491.95,478.855,511.4Z" transform="translate(-172.433 -194.367)"/>
      <path id="Tracé_194" data-name="Tracé 194" class="cls-3" d="M566.72,395.59c1.961,2.331,8.3,36.728,9.248,45.624,1.449,13.983-25.661,34.465-63.929,34.465-12.633,0-54.459-2.818-66.476-7.355-.617,7.6-30.914,102.414-34.348,105.848-5.641,1.474-13.983-1.591-16.067-3.7s14.476-133.087,19.113-141.546,99.1-14.815,99.1-14.815Z" transform="translate(-151.453 -151.695)"/>
      <path id="Tracé_195" data-name="Tracé 195" class="cls-9" d="M542.548,235.577c17.738,10.352-8.786,55.569-12.14,56.722-5.346-.617-23.959-11.5-27.449-19.507C502.208,267.872,527.4,226.73,542.548,235.577Z" transform="translate(-192.857 -89.861)"/>
      <path id="Tracé_196" data-name="Tracé 196" class="cls-10" d="M563.681,205.91c29.65,0,58.2,113.191,57.03,117.723-2.4,9.291-50.97,26.283-58.763,18.983C542.238,324.169,505.887,205.91,563.681,205.91Z" transform="translate(-204.162 -78.961)"/>
      <line id="Ligne_45" data-name="Ligne 45" class="cls-6" x2="23.324" y2="120.152" transform="translate(412.832 328.275)"/>
      <path id="Tracé_197" data-name="Tracé 197" d="M383.929,704.284l-7.738,19.52L334.42,705.19l4.149-8.36,30.507.906Z" transform="translate(-128.235 -267.208)"/>
      <path id="Tracé_198" data-name="Tracé 198" d="M521.207,671.35l10.266,18.318-40.8,20.667-3.866-8.5,19.951-23.09Z" transform="translate(-186.67 -257.437)"/>
      <path id="Tracé_199" data-name="Tracé 199" class="cls-5" d="M561.838,185.69c.672,3.749,4.932,15.05,6.782,17.121s-8.107,14.181-19.181,11.961c-.333-3.8-1.646-14.575-3.385-16.363S561.838,185.69,561.838,185.69Z" transform="translate(-209.342 -71.208)"/>
      <ellipse id="Ellipse_22" data-name="Ellipse 22" class="cls-4" cx="22.923" cy="31.135" rx="22.923" ry="31.135" transform="translate(301.636 75.143) rotate(-18.072)"/>
      <path id="Tracé_200" data-name="Tracé 200" class="cls-11" d="M494.908,89.64c12.281,0,43.842,21.819,43.842,43.775,0,11.782-2.084,14.8-2.873,14.8s-8.41-5.913-8.41-10.161-1.5-10.531-2.959-10.531c-2.466,0-2.83,2.744-9.032,2.744-2.374,0-6.831-2.83-6.831-6.079-5.037.086-5.037,1.751-11.949,1.751-7.83,0-27.066-3.958-27.066-10.037,0-4.119,5.37-6.955,10.66-5.95-3.582-1.917-6.782-5.876-6.782-8.5,0-3.668,4.624-6.2,8.206-6.2a14.754,14.754,0,0,1,9.741,3.539C489.994,96.262,491.437,89.64,494.908,89.64Z" transform="translate(-180.083 -34.377)"/>
      <circle id="Ellipse_23" data-name="Ellipse 23" class="cls-4" cx="6.369" cy="6.369" r="6.369" transform="translate(337.077 92.946)"/>
      <rect id="Rectangle_463" data-name="Rectangle 463" class="cls-12" width="319.746" height="8.965" transform="translate(0 241.619)"/>
      <path id="Tracé_201" data-name="Tracé 201" class="cls-7" d="M292.242,368.28H27.165L0,382.763H319.413Z" transform="translate(0 -141.223)"/>
      <line id="Ligne_46" data-name="Ligne 46" class="cls-2" y2="188.021" transform="translate(40.266 250.578)"/>
      <line id="Ligne_47" data-name="Ligne 47" class="cls-2" y2="154.161" transform="translate(65.606 250.578)"/>
      <line id="Ligne_48" data-name="Ligne 48" class="cls-2" y2="188.021" transform="translate(279.479 250.578)"/>
      <rect id="Rectangle_464" data-name="Rectangle 464" class="cls-12" width="56.691" height="3.884" transform="translate(188.57 228.062)"/>
      <rect id="Rectangle_465" data-name="Rectangle 465" class="cls-12" width="10.851" height="12.917" transform="translate(117.63 223.228)"/>
      <ellipse id="Ellipse_24" data-name="Ellipse 24" class="cls-1" cx="12.713" cy="5.943" rx="12.713" ry="5.943" transform="translate(217.868 227.963)"/>
      <path id="Tracé_202" data-name="Tracé 202" class="cls-4" d="M458.655,309.46c-1.85,2.016-13.169,18.293-14.39,20.013-25.895,3.021-60.113,11.326-61.371,11.369s-15.648-4.618-17.578-4.279-5.876,7.257-5.709,8.681,11.5,8.268,24.545,8.1c2.466-.166,3.274-1.51,5.833-1.51s61.038,4.519,71.186-.783c5.518-2.892,21.024-24.7,21.024-26.333S458.655,309.46,458.655,309.46Z" transform="translate(-137.892 -118.668)"/>
      <path id="Tracé_203" data-name="Tracé 203" class="cls-13" d="M555.494,244.137c17.732,10.352-8.786,55.569-12.14,56.722-5.352-.617-23.959-11.5-27.455-19.507C515.148,276.432,540.34,235.29,555.494,244.137Z" transform="translate(-197.819 -93.144)"/>
      <rect id="Rectangle_466" data-name="Rectangle 466" class="cls-7" width="5.197" height="167.311" transform="translate(108.432 62.933)"/>
      <path id="Tracé_204" data-name="Tracé 204" class="cls-12" d="M184.29,102.08V269.392l24.575-8.989V111.063Z" transform="translate(-70.667 -39.147)"/>
      <rect id="Rectangle_467" data-name="Rectangle 467" class="cls-3" width="19.298" height="27.14" rx="9.649" transform="translate(333.31 88.902)"/>
      <path id="Tracé_205" data-name="Tracé 205" class="cls-14" d="M550.746,131.386c0-3.422,1.184-23.577-10.136-29.526" transform="translate(-207.3 -39.063)"/>
      <path id="Tracé_206" data-name="Tracé 206" class="cls-15" d="M550.508,188.22c0,1.967-.777,13.12-9.248,13.12" transform="translate(-207.55 -72.178)"/>
    </g>
  </g>
</svg>
