<svg xmlns="http://www.w3.org/2000/svg" width="486" height="441.24" viewBox="0 0 486 441.24">
  <defs>
    <style>
      .cls-1 {
        fill: #e6e6e6;
      }

      .cls-2 {
        fill: #ffb9b9;
      }

      .cls-3 {
        fill: #2f2e41;
      }

      .cls-4 {
        fill: #2232ff;
      }

      .cls-5 {
        opacity: 0.3;
      }

      .cls-6 {
        fill: #fff;
      }
    </style>
  </defs>
  <g id="undraw_build_wireframe_u9m2" transform="translate(0 0)">
    <ellipse id="Ellipse_25" data-name="Ellipse 25" class="cls-1" cx="89.795" cy="13.036" rx="89.795" ry="13.036" transform="translate(0 415.168)"/>
    <path id="Tracé_324" data-name="Tracé 324" class="cls-1" d="M431.046,537.972c-10.733-.908-24.718-8.835-23.8-22.457.457-6.756,5.048-11.71,10.033-15.187,6.9-4.809,15.142-7.385,23.227-8.849,9.325-1.688,18.839-1.9,28.3-2.049,9.342-.144,18.668-.4,27.984-1.052a433.787,433.787,0,0,0,54.65-7.33,430.467,430.467,0,0,0,52.26-13.857q12.738-4.256,25.2-9.351a205.891,205.891,0,0,0,22.881-10.584c9.691-5.436,25.275-15.571,21.942-29.983-1.767-7.642-8.136-13.074-14.3-16.625-7.451-4.294-15.722-6.663-23.818-8.955-37.66-10.66-75.364-21.128-113.046-31.69-8.794-2.465-17.631-4.827-26.264-7.942-8.082-2.917-16.216-6.475-23.148-11.978-6.054-4.807-11.8-11.583-12.755-19.9-.792-6.9,2.216-13.244,6.278-18.235,10.055-12.356,25.754-18.939,40.168-23.225,17.908-5.325,36.468-7.822,54.4-13.051,14.48-4.222,29.692-10.648,40.353-22.323,4.087-4.477,7.482-9.986,8.36-16.352a24.86,24.86,0,0,0-4.536-17.447c-4.124-5.967-10.009-10.369-16.036-13.809a87.351,87.351,0,0,0-22.672-8.758c-17.1-4.176-34.619-5.184-51.911-7.825-8.48-1.295-17.075-2.81-25.205-5.906-6.889-2.622-14.515-6.382-19.031-12.9-9.319-13.44,7.086-24.423,16.6-29.03a152.93,152.93,0,0,1,20.171-7.735c1.465-.469.494-2.851-.964-2.385a146.864,146.864,0,0,0-21.168,8.226c-5.725,2.868-11.554,6.407-15.641,11.693-3.432,4.439-5.145,10.319-3.3,16.031,2.187,6.758,8.339,11.361,13.961,14.537,7.435,4.2,15.576,6.5,23.74,8.164,8.6,1.755,17.285,2.854,25.963,3.911,17.341,2.112,35.368,3.645,51.748,10.916,11.458,5.086,27.48,15.362,26.012,30.985-.651,6.935-4.682,12.834-9.277,17.393a71.007,71.007,0,0,1-19.068,13.016c-32,15.644-69.948,12.69-100.545,32.2-10.4,6.632-22.619,17.8-20.738,32.508.977,7.642,5.639,14.141,10.98,19.053,6.4,5.884,14.182,9.822,21.983,12.937a249.681,249.681,0,0,0,25.257,8.106q14.177,3.983,28.358,7.949l57.377,16.083,28.509,7.991c8.7,2.439,17.593,4.7,25.772,8.906,6.7,3.44,14.875,9.465,15.428,18.245.439,6.973-4.455,12.711-9.092,16.731-6,5.206-13.029,9-20.079,12.315-8.132,3.824-16.466,7.212-24.846,10.378a418.538,418.538,0,0,1-52.9,16.042,435.074,435.074,0,0,1-54.714,9.124q-13.962,1.421-28,1.925c-9.65.344-19.328.172-28.962.818-8.714.585-17.414,1.9-25.664,4.929-6.888,2.529-14.012,6.339-18.663,12.521a19.446,19.446,0,0,0-3.609,15.421,23.983,23.983,0,0,0,8.519,13.644,30.9,30.9,0,0,0,17.037,6.621c1.533.13,1.836-2.425.3-2.555Z" transform="translate(-289.049 -114.877)"/>
    <path id="Tracé_325" data-name="Tracé 325" class="cls-2" d="M113.272,103.449l-.652,16.3,20.858,14.34,3.259-30.635Z" transform="translate(-39.214 -36.02)"/>
    <path id="Tracé_326" data-name="Tracé 326" class="cls-2" d="M409.891,342.974l7.17,20.858,14.34,49.537s14.34,24.117,1.955,24.769-9.777-21.51-9.777-21.51l-20.206-35.2-4.563-37.153Z" transform="translate(-286.947 -192.114)"/>
    <path id="Tracé_327" data-name="Tracé 327" class="cls-2" d="M396.393,714.636s4.758,12.983,9.609,19.255-2.612,10.284-2.612,10.284l-23.7-2.8s1.428-20.748-.423-24.192Z" transform="translate(-280.141 -321.525)"/>
    <path id="Tracé_328" data-name="Tracé 328" class="cls-3" d="M401.134,746.3s3.8-9.445,5.964-5.426,10.765,9.014,10.765,9.014,22.865,3.99,5.863,10.908-27.68.818-27.68.818-16.025.474-17.877-2.971-2.38-16.684.956-14.675S397.509,751.944,401.134,746.3Z" transform="translate(-279.248 -330.313)"/>
    <path id="Tracé_329" data-name="Tracé 329" class="cls-2" d="M322.186,685.84s-1.955,13.688-.652,21.51-7.17,7.822-7.17,7.822L294.81,701.484s11.081-17.6,11.081-21.51Z" transform="translate(-250.735 -309.456)"/>
    <path id="Tracé_330" data-name="Tracé 330" class="cls-3" d="M374.553,454.269s-5.214,63.225-15.643,86.69-26.724,69.091-26.724,69.091l-27.376-9.777s13.036-59.314,24.769-67.788l7.822-94.512Z" transform="translate(-254.217 -225.193)"/>
    <path id="Tracé_331" data-name="Tracé 331" class="cls-3" d="M369.346,454.956,360.221,489.5,379.775,618.56l-24.769,5.866L323.72,479.073s-9.777-18.9-3.911-37.153S369.346,454.956,369.346,454.956Z" transform="translate(-258.787 -224.576)"/>
    <path id="Tracé_332" data-name="Tracé 332" class="cls-3" d="M313.882,717s7.822-6.518,7.822-1.955,5.214,13.036,5.214,13.036,18.251,14.34,0,12.384-24.769-12.384-24.769-12.384-14.34-7.17-14.34-11.081,5.8-15.822,7.79-12.474S308.016,720.256,313.882,717Z" transform="translate(-248.297 -317.799)"/>
    <circle id="Ellipse_26" data-name="Ellipse 26" class="cls-2" cx="19.554" cy="19.554" r="19.554" transform="translate(65.585 36.794)"/>
    <path id="Tracé_333" data-name="Tracé 333" class="cls-4" d="M323.882,227.974l20.858,16.3,3.911-9.125,4.563,7.822s22.813,12.384,22.813,17.6.652,120.584.652,120.584-20.206,19.554-39.76-7.822-26.072,13.688-26.072,13.688l-5.214-80.172L297.81,254.7a15.613,15.613,0,0,1,5.214-5.214c3.911-2.607,17.6-13.036,17.6-13.036Z" transform="translate(-251.779 -152.072)"/>
    <path id="Tracé_334" data-name="Tracé 334" class="cls-4" d="M177.924,160.449l8.473,3.259,7.822,44.323-17.6,3.911Z" transform="translate(-61.498 -55.867)"/>
    <path id="Tracé_335" data-name="Tracé 335" class="cls-2" d="M274.676,338.974l-5.866,29.983,39.76,40.412s9.777,19.554,17.6,11.081S312.481,400.9,312.481,400.9l-24.769-40.412,5.866-14.34Z" transform="translate(-241.682 -190.722)"/>
    <path id="Tracé_336" data-name="Tracé 336" class="cls-3" d="M322.411,168.4s-3.623-7.97,5.8-11.593c0,0,7.97-13.042,23.91-4.347,0,0,10.868,4.347,10.868,15.94s3.623,13.766,3.623,13.766-5.395-5.535-6.844-9.882-12.719-5.334-17.066-.986-15.215,3.623-15.215,3.623l.725,15.94s-3.623-9.419-5.072-9.419S320.237,168.4,322.411,168.4Z" transform="translate(-259.959 -124.739)"/>
    <path id="Tracé_337" data-name="Tracé 337" class="cls-4" d="M68.737,157.449h-7.17L44.62,206.986l23.465,7.17,13.036-32.59Z" transform="translate(-15.536 -54.823)"/>
    <path id="Tracé_338" data-name="Tracé 338" class="cls-5" d="M124.347,532.865l-8.227-60.916,11.752,51.441Z" transform="translate(-40.432 -164.33)"/>
    <path id="Tracé_339" data-name="Tracé 339" class="cls-1" d="M446.676,471.417A2.284,2.284,0,0,0,444.4,473.7V599.86a2.284,2.284,0,0,0,2.281,2.281H786.538a2.284,2.284,0,0,0,2.281-2.281V473.7a2.284,2.284,0,0,0-2.281-2.281Z" transform="translate(-302.819 -236.837)"/>
    <path id="Tracé_340" data-name="Tracé 340" class="cls-6" d="M463.609,486.3a1.631,1.631,0,0,0-1.63,1.63V595.994a1.631,1.631,0,0,0,1.63,1.629H781.851a1.631,1.631,0,0,0,1.629-1.629V487.929a1.631,1.631,0,0,0-1.629-1.63Z" transform="translate(-308.942 -242.019)"/>
    <path id="Tracé_341" data-name="Tracé 341" class="cls-1" d="M551.367,252.276a3.973,3.973,0,0,0-3.911,4.023V347.49a3.973,3.973,0,0,0,3.911,4.023H754.079a3.972,3.972,0,0,0,3.911-4.023V256.3a3.972,3.972,0,0,0-3.911-4.023Z" transform="translate(-338.704 -160.534)"/>
    <path id="Tracé_342" data-name="Tracé 342" class="cls-1" d="M551.367,111.526a4.19,4.19,0,0,0-3.911,4.414v63.523a4.19,4.19,0,0,0,3.911,4.414H754.079a4.19,4.19,0,0,0,3.911-4.414V115.939a4.19,4.19,0,0,0-3.911-4.414Z" transform="translate(-338.705 -111.526)"/>
    <rect id="Rectangle_484" data-name="Rectangle 484" class="cls-6" width="160.344" height="9.125" transform="translate(233.846 16.458)"/>
    <rect id="Rectangle_485" data-name="Rectangle 485" class="cls-6" width="160.344" height="4.237" transform="translate(234.172 35.686)"/>
    <rect id="Rectangle_486" data-name="Rectangle 486" class="cls-6" width="160.344" height="4.237" transform="translate(234.172 50.678)"/>
    <path id="Tracé_343" data-name="Tracé 343" class="cls-6" d="M675.126,363.633h73.792a2.376,2.376,0,0,0,1.68-4.055L703.37,312.351a2.378,2.378,0,0,0-3.359,0l-11.744,11.744a4.982,4.982,0,0,1-7.046,0L644.435,287.31a2.379,2.379,0,0,0-3.36,0l-71.942,71.942a2.376,2.376,0,0,0,1.68,4.055H675.22Z" transform="translate(-346.01 -172.491)"/>
    <circle id="Ellipse_27" data-name="Ellipse 27" class="cls-6" cx="9.125" cy="9.125" r="9.125" transform="translate(232.216 104.126)"/>
    <path id="Tracé_344" data-name="Tracé 344" class="cls-1" d="M540.788,582.974a.979.979,0,0,0-.978.978v6.518a.979.979,0,0,0,.978.978H763.706a.979.979,0,0,0,.978-.978v-6.518a.979.979,0,0,0-.978-.978Z" transform="translate(-336.042 -275.681)"/>
    <path id="Tracé_345" data-name="Tracé 345" class="cls-1" d="M551.367,437.276a3.973,3.973,0,0,0-3.911,4.023V532.49a3.973,3.973,0,0,0,3.911,4.023H754.079a3.973,3.973,0,0,0,3.911-4.023V441.3a3.972,3.972,0,0,0-3.911-4.023Z" transform="translate(-338.704 -224.95)"/>
    <path id="Tracé_346" data-name="Tracé 346" class="cls-4" d="M675.126,548.633h73.792a2.376,2.376,0,0,0,1.68-4.055L703.37,497.351a2.379,2.379,0,0,0-3.359,0l-11.744,11.743a4.98,4.98,0,0,1-7.046,0L644.435,472.31a2.38,2.38,0,0,0-3.36,0l-71.942,71.942a2.376,2.376,0,0,0,1.68,4.055H675.22Z" transform="translate(-346.01 -236.906)"/>
    <circle id="Ellipse_28" data-name="Ellipse 28" class="cls-4" cx="9.125" cy="9.125" r="9.125" transform="translate(232.216 224.71)"/>
  </g>
</svg>
