<svg xmlns="http://www.w3.org/2000/svg" width="183.732" height="309.88" viewBox="0 0 183.732 309.88">
  <g id="Groupe_781" data-name="Groupe 781" transform="translate(-9327.187 -5120.907)">
    <rect id="Rectangle_681" data-name="Rectangle 681" width="183.732" height="188.796" transform="translate(9327.187 5120.907)" fill="#fff"/>
    <ellipse id="Ellipse_160" data-name="Ellipse 160" cx="32.913" cy="4.702" rx="32.913" ry="4.702" transform="translate(9398.953 5417.483)" fill="#e6e6e6"/>
    <rect id="Rectangle_684" data-name="Rectangle 684" width="127.704" height="5.825" transform="translate(9355.327 5240.166)" fill="#e6e6e6"/>
    <rect id="Rectangle_685" data-name="Rectangle 685" width="127.704" height="5.825" transform="translate(9355.327 5258.973)" fill="#2232ff"/>
    <rect id="Rectangle_686" data-name="Rectangle 686" width="127.704" height="5.825" transform="translate(9355.327 5277.78)" fill="#e6e6e6"/>
    <path id="Tracé_622" data-name="Tracé 622" d="M503.429,475l-.536,1.072-1.608-8.042s-2.144-8.578,2.144-8.578,3.217,8.578,3.217,8.578v5.9Z" transform="translate(8899.289 4801.204)" fill="#a0616a"/>
    <path id="Tracé_623" data-name="Tracé 623" d="M600.42,473.479l.536,1.072,1.608-8.042s2.144-8.578-2.144-8.578-3.217,8.578-3.217,8.578v5.9Z" transform="translate(8872.638 4801.624)" fill="#a0616a"/>
    <path id="Tracé_624" data-name="Tracé 624" d="M379.755,358.94l-6.433,39.672,3.216,38.6,7.506-3.216-1.072-28.95,7.506-23.053,1.608,27.341-3.216,28.413,9.65,1.073,6.97-58.436-.536-19.836Z" transform="translate(9046.552 4977.551)" fill="#2f2e41"/>
    <path id="Tracé_625" data-name="Tracé 625" d="M535.629,665.62l-3.753,5.9v13.177a1.6,1.6,0,0,0,1.343,1.577c1.84.3,5.042.516,6.163-1.351,1.608-2.681.536-8.578.536-8.578s2.144-4.289,1.072-7.505-2.144-3.753-2.144-3.753Z" transform="translate(8890.678 4744.317)" fill="#2f2e41"/>
    <path id="Tracé_626" data-name="Tracé 626" d="M556.838,673.032l1.072,1.608s1.608,1.608.536,2.681A20.95,20.95,0,0,0,556.3,680s-5.9,1.608-5.9-.536V672.5Z" transform="translate(8885.552 4742.267)" fill="#2f2e41"/>
    <circle id="Ellipse_165" data-name="Ellipse 165" cx="7.106" cy="7.106" r="7.106" transform="translate(9433.352 5278.645)" fill="#a0616a"/>
    <path id="Tracé_627" data-name="Tracé 627" d="M394.98,291.867l-.536,10.186,9.65.536-.536-10.186Z" transform="translate(9040.709 4996.106)" fill="#a0616a"/>
    <path id="Tracé_628" data-name="Tracé 628" d="M554.85,510.523l-1.522-3.718s-7.056-2.716-9.2-.035l-1.072,3.217-8.578-2.144-4.825,10.722,4.289,30.558s11.258,14.475,26.269.536l4.289-28.95-3.216-11.258Z" transform="translate(8891.293 4788.44)" fill="#575a89"/>
    <path id="Tracé_629" data-name="Tracé 629" d="M417.049,297.855l1.072-2.145,10.722-6.434,6.543-19.369,5.063,2.17-5.71,23.1-15.547,14.474Z" transform="translate(9034.455 5002.182)" fill="#575a89"/>
    <path id="Tracé_630" data-name="Tracé 630" d="M372.7,295.611l-1.072-1.072-11.258-6.97-8.042-16.083L345.9,273.63l6.969,19.836L370.025,307.4Z" transform="translate(9054.139 5001.745)" fill="#575a89"/>
    <path id="Tracé_631" data-name="Tracé 631" d="M559.036,478.037l1.162-.581-1.743-.581v-.581s-8.714-3.486-9.876,2.324a11.677,11.677,0,0,0,0,13.943V494.3l9.3,1.162,1.162-3.486S564.846,481.523,559.036,478.037Z" transform="translate(8886.695 4796.832)" fill="#2f2e41"/>
    <rect id="Rectangle_697" data-name="Rectangle 697" width="127.311" height="73.059" transform="translate(9355.398 5142.608)" fill="#e6e6e6"/>
    <rect id="Rectangle_699" data-name="Rectangle 699" width="1.446" height="146.784" transform="translate(9355.037 5143.236) rotate(-60.15)" fill="#fff"/>
    <rect id="Rectangle_700" data-name="Rectangle 700" width="146.784" height="1.446" transform="matrix(0.867, -0.498, 0.498, 0.867, 9355.034, 5215.036)" fill="#fff"/>
  </g>
</svg>
