<svg xmlns="http://www.w3.org/2000/svg" xmlns:xlink="http://www.w3.org/1999/xlink" width="1600" height="1200" viewBox="0 0 1600 1200">
  <defs>
    <clipPath id="clip-path">
      <rect id="Background" width="1600" height="1200" transform="translate(5069 -6834)" fill="#060039"/>
    </clipPath>
    <clipPath id="clip-Taieri">
      <rect width="1600" height="1200"/>
    </clipPath>
  </defs>
  <g id="Taieri" clip-path="url(#clip-Taieri)">
    <rect width="1600" height="1200" fill="#fff"/>
    <g id="Composant_6_1" data-name="Composant 6 – 1" transform="translate(0 3)">
      <path id="Background-2" data-name="Background" d="M1600,1200h0Z" transform="translate(0 -3)" fill="#060039"/>
      <g id="Groupe_de_masques_8" data-name="Groupe de masques 8" transform="translate(-5069 6834)" clip-path="url(#clip-path)">
        <g id="Taieri-2" data-name="Taieri" transform="translate(5051.098 -6955.803)">
          <path id="Shape" d="M117.572,0c0,32.75-26.319,59.3-58.786,59.3S0,32.75,0,0" transform="translate(1518.216 1021.346)" fill="none" stroke="#44ab96" stroke-linecap="round" stroke-linejoin="round" stroke-miterlimit="10" stroke-width="10.947"/>
          <path id="Shape-2" data-name="Shape" d="M73.61,148.243C32.953,148.243,0,115.058,0,74.122S32.953,0,73.61,0" transform="translate(1562.178 10.224)" fill="none" stroke="#e53855" stroke-linecap="round" stroke-linejoin="round" stroke-miterlimit="10" stroke-width="10.947"/>
          <path id="Shape-3" data-name="Shape" d="M0,69.425a61.342,61.342,0,0,0,122.684,0V0" transform="translate(574.571 1.022)" fill="none" stroke="#44ab96" stroke-linecap="round" stroke-linejoin="round" stroke-miterlimit="10" stroke-width="10.947"/>
          <path id="Shape-4" data-name="Shape" d="M138.26,275.017C61.9,275.017,0,213.457,0,137.508S61.9,0,138.26,0H264.793" transform="translate(2.045 1168.566)" fill="none" stroke="#ffb017" stroke-linecap="round" stroke-linejoin="round" stroke-miterlimit="10" stroke-width="10.947"/>
          <path id="Shape-5" data-name="Shape" d="M45.986,88.946C20.588,88.946,0,69.036,0,44.473S20.588,0,45.986,0H95.08" transform="translate(85.879 1260.58)" fill="none" stroke="#44ab96" stroke-linecap="round" stroke-linejoin="round" stroke-miterlimit="10" stroke-width="10.947"/>
          <path id="Shape-6" data-name="Shape" d="M271.95,0H71.184C31.87,0,0,31.126,0,69.521" transform="translate(0 1.022)" fill="none" stroke="#44ab96" stroke-linecap="round" stroke-linejoin="round" stroke-miterlimit="10" stroke-width="10.947"/>
          <path id="Shape-7" data-name="Shape" d="M-287.153,0H-29.781A91.124,91.124,0,0,1,61.475,90.991" transform="translate(1430.16 3.067)" fill="none" stroke="#4484ab" stroke-linecap="round" stroke-linejoin="round" stroke-miterlimit="10" stroke-width="10.947"/>
          <path id="Shape-8" data-name="Shape" d="M122.684,233.157V61.073A61.342,61.342,0,1,0,0,61.073V87.709" transform="translate(1513.104 239.177)" fill="none" stroke="#da774a" stroke-linecap="round" stroke-linejoin="round" stroke-miterlimit="10" stroke-width="10.947"/>
          <circle id="Shape-9" data-name="Shape" cx="40.895" cy="40.895" r="40.895" transform="translate(560.258 360.896)" stroke-width="10.947" stroke="#44ab96" stroke-linecap="round" stroke-linejoin="round" stroke-miterlimit="10" fill="none"/>
          <ellipse id="Shape-10" data-name="Shape" cx="59.297" cy="58.786" rx="59.297" ry="58.786" transform="translate(654.315 1163.455)" fill="none" stroke="#e53855" stroke-linecap="round" stroke-linejoin="round" stroke-miterlimit="10" stroke-width="10.947"/>
          <circle id="Shape-11" data-name="Shape" cx="64.409" cy="64.409" r="64.409" transform="translate(123.707 198.339)" stroke-width="10.947" stroke="#44ab96" stroke-linecap="round" stroke-linejoin="round" stroke-miterlimit="10" fill="none"/>
          <path id="Shape-12" data-name="Shape" d="M143.643,283.2c79.336,0,143.643-63.395,143.643-141.6S222.978,0,143.643,0,0,63.395,0,141.6" transform="translate(44.984 119.617)" fill="none" stroke="#ffb017" stroke-linecap="round" stroke-linejoin="round" stroke-miterlimit="10" stroke-width="10.947"/>
          <path id="Shape-13" data-name="Shape" d="M5.327,108.838C-16.5,190.438,30.714,274.008,110.77,295.5s162.659-27.245,184.479-108.844S269.862,21.493,189.807,0" transform="translate(1335.212 1143.007)" fill="none" stroke="#44ab96" stroke-linecap="round" stroke-linejoin="round" stroke-miterlimit="10" stroke-width="10.947"/>
          <path id="Shape-14" data-name="Shape" d="M58.786,0a58.786,58.786,0,1,0,58.786,58.786V0" transform="translate(277.062 423.26)" fill="none" stroke="#44ab96" stroke-linecap="round" stroke-linejoin="round" stroke-miterlimit="10" stroke-width="10.947"/>
          <path id="Shape-15" data-name="Shape" d="M0,78.211c0,43.2,34.787,78.211,77.7,78.211s77.7-35.016,77.7-78.211S120.613,0,77.7,0H0" transform="translate(353.739 1.022)" fill="none" stroke="#e53855" stroke-linecap="round" stroke-linejoin="round" stroke-miterlimit="10" stroke-width="10.947"/>
          <path id="Shape-16" data-name="Shape" d="M67.987,134.525C30.439,134.525,0,104.411,0,67.263S30.439,0,67.987,0s67.987,30.114,67.987,67.263v205.71" transform="translate(5.112 751.44)" fill="none" stroke="#44ab96" stroke-linecap="round" stroke-linejoin="round" stroke-miterlimit="10" stroke-width="10.947"/>
          <path id="Shape-17" data-name="Shape" d="M144.142,62.364c0,34.443,27.473,62.364,61.354,62.364s61.342-27.922,61.342-62.364S239.378,0,205.5,0H0" transform="translate(1350.548 827.096)" fill="none" stroke="#44ab96" stroke-linecap="round" stroke-linejoin="round" stroke-miterlimit="10" stroke-width="10.947"/>
          <path id="Shape-18" data-name="Shape" d="M65.432,142.918C29.295,142.918,0,171.8,0,207.429S29.295,271.95,65.432,271.95s65.432-28.885,65.432-64.511V0" transform="translate(922.176)" fill="none" stroke="#4484ab" stroke-linecap="round" stroke-linejoin="round" stroke-miterlimit="10" stroke-width="10.947"/>
          <path id="Shape-19" data-name="Shape" d="M34.678,59.3C34.678,26.548,61.016,0,93.506,0s58.827,26.548,58.827,59.3S126,118.595,93.5,118.595H0" transform="translate(900.706 1324.989)" fill="none" stroke="#44ab96" stroke-linecap="round" stroke-linejoin="round" stroke-miterlimit="10" stroke-width="10.947"/>
          <path id="Shape-20" data-name="Shape" d="M58.786,160.08A58.492,58.492,0,1,1,0,218.571V0" transform="translate(1055.084 415.081)" fill="none" stroke="#da774a" stroke-linecap="round" stroke-linejoin="round" stroke-miterlimit="10" stroke-width="10.947"/>
          <path id="Shape-21" data-name="Shape" d="M58.786,178.616C26.32,178.616,0,204.544,0,236.529s26.32,57.913,58.786,57.913,58.786-25.928,58.786-57.913V0" transform="translate(5.112 402.813)" fill="none" stroke="#da774a" stroke-linecap="round" stroke-linejoin="round" stroke-miterlimit="10" stroke-width="10.947"/>
          <path id="Shape-22" data-name="Shape" d="M207.234,105.3C207.234,47.146,160.842,0,103.615,0S0,47.146,0,105.3s46.392,105.3,103.619,105.3h271.59" transform="translate(496.871 297.509)" fill="none" stroke="#ffb017" stroke-linecap="round" stroke-linejoin="round" stroke-miterlimit="10" stroke-width="10.947"/>
          <path id="Shape-23" data-name="Shape" d="M271.585,210.608c57.238,0,103.624-47.147,103.624-105.3S328.823,0,271.585,0H0" transform="translate(1260.58 532.654)" fill="none" stroke="#44ab96" stroke-linecap="round" stroke-linejoin="round" stroke-miterlimit="10" stroke-width="10.947"/>
          <path id="Shape-24" data-name="Shape" d="M0,98.659C0,44.166,43.695,0,97.6,0H197.868c53.905,0,97.6,44.166,97.6,98.659h0c0,54.492-43.691,98.659-97.6,98.659H97.6C43.695,197.317,0,153.151,0,98.659Z" transform="translate(1131.761 80.767)" fill="none" stroke="#da774a" stroke-linecap="round" stroke-linejoin="round" stroke-miterlimit="10" stroke-width="10.947"/>
          <path id="Shape-25" data-name="Shape" d="M60.831,294.442A60.78,60.78,0,0,1,0,233.713V60.729A60.78,60.78,0,0,1,60.831,0h0a60.78,60.78,0,0,1,60.831,60.729V233.713a60.78,60.78,0,0,1-60.831,60.729Z" transform="translate(211.63 596.04)" fill="none" stroke="#ffb017" stroke-linecap="round" stroke-linejoin="round" stroke-miterlimit="10" stroke-width="10.947"/>
          <path id="Shape-26" data-name="Shape" d="M0,138.531V47.2A47.37,47.37,0,0,1,47.54,0h0A47.37,47.37,0,0,1,95.08,47.2V229.863a47.37,47.37,0,0,1-47.54,47.2h0A47.37,47.37,0,0,1,0,229.863V207.8" transform="translate(846.521 674.763)" fill="none" stroke="#e53855" stroke-linecap="round" stroke-linejoin="round" stroke-miterlimit="10" stroke-width="10.947"/>
          <path id="Shape-27" data-name="Shape" d="M164.6,324.019v7.962a82.189,82.189,0,0,1-82.3,82.078h0A82.189,82.189,0,0,1,0,331.982V82.077A82.189,82.189,0,0,1,82.3,0h0a82.189,82.189,0,0,1,82.3,82.077V84.53" transform="translate(769.843 1.022)" fill="none" stroke="#ffb017" stroke-linecap="round" stroke-linejoin="round" stroke-miterlimit="10" stroke-width="10.947"/>
          <path id="Shape-28" data-name="Shape" d="M68.243,0H63.324A63.355,63.355,0,0,0,0,63.387H0a63.355,63.355,0,0,0,63.324,63.387H209.648a63.355,63.355,0,0,0,63.324-63.387h0A63.355,63.355,0,0,0,209.648,0h-4.919" transform="translate(5.112 973.294)" fill="none" stroke="#ffb017" stroke-linecap="round" stroke-linejoin="round" stroke-miterlimit="10" stroke-width="10.947"/>
          <path id="Shape-29" data-name="Shape" d="M0,0V236.818C0,307.6,57.9,364.985,129.33,364.985s129.33-57.382,129.33-128.167V180.866" transform="translate(767.798 674.763)" fill="none" stroke="#44ab96" stroke-linecap="round" stroke-linejoin="round" stroke-miterlimit="10" stroke-width="10.947"/>
          <path id="Shape-30" data-name="Shape" d="M0,0H212.448c80.857,0,146.4,65.913,146.4,147.221s-65.546,147.221-146.4,147.221h-63.91" transform="translate(508.117 1075.531)" fill="none" stroke="#44ab96" stroke-linecap="round" stroke-linejoin="round" stroke-miterlimit="10" stroke-width="10.947"/>
          <path id="Shape-31" data-name="Shape" d="M111.472,122.684H61.185A61.342,61.342,0,0,1,61.185,0H161.758A61.247,61.247,0,0,1,222.91,61.342v5.449a55.806,55.806,0,0,1-55.719,55.893" transform="translate(487.636 593.996)" fill="none" stroke="#4484ab" stroke-linecap="round" stroke-linejoin="round" stroke-miterlimit="10" stroke-width="10.947"/>
          <path id="Shape-32" data-name="Shape" d="M127.285,131.885h57.438c38.573,0,69.847-29.524,69.847-65.943S223.3,0,184.722,0H69.847C31.271,0,0,29.524,0,65.943" transform="translate(986.585 350.672)" fill="none" stroke="#44ab96" stroke-linecap="round" stroke-linejoin="round" stroke-miterlimit="10" stroke-width="10.947"/>
          <path id="Shape-33" data-name="Shape" d="M295.464,0H157.771C70.636,0,0,70.952,0,158.467" transform="translate(394.634 207.541)" fill="none" stroke="#44ab96" stroke-linecap="round" stroke-linejoin="round" stroke-miterlimit="10" stroke-width="10.947"/>
          <path id="Shape-34" data-name="Shape" d="M58.786,321.882c32.467,0,58.786,26.132,58.786,58.357S91.254,438.6,58.786,438.6,0,412.464,0,380.239V0" transform="translate(1423.136 911.952)" fill="none" stroke="#e53855" stroke-linecap="round" stroke-linejoin="round" stroke-miterlimit="10" stroke-width="10.947"/>
          <path id="Shape-35" data-name="Shape" d="M0,108.371C0,48.521,47.895,0,106.975,0H295.464" transform="translate(1041.793 1163.455)" fill="none" stroke="#44ab96" stroke-linecap="round" stroke-linejoin="round" stroke-miterlimit="10" stroke-width="10.947"/>
          <path id="Shape-36" data-name="Shape" d="M0,122.684H100.573c67.546,0,122.3-54.928,122.3-122.684" transform="translate(763.709 471.312)" fill="none" stroke="#4484ab" stroke-linecap="round" stroke-linejoin="round" stroke-miterlimit="10" stroke-width="10.947"/>
          <path id="Shape-37" data-name="Shape" d="M178.914,0V54.957A100.459,100.459,0,0,1,78.448,155.4H0" transform="translate(1171.634 913.997)" fill="none" stroke="#4484ab" stroke-linecap="round" stroke-linejoin="round" stroke-miterlimit="10" stroke-width="10.947"/>
          <path id="Shape-38" data-name="Shape" d="M198.339,0H112.453C50.343,0,0,50.812,0,113.483" transform="translate(1342.369 640.002)" fill="none" stroke="#da774a" stroke-linecap="round" stroke-linejoin="round" stroke-miterlimit="10" stroke-width="10.947"/>
          <path id="Shape-39" data-name="Shape" d="M0,203.451V110.3C0,56.658,41.892,11.727,98.147,0" transform="translate(222.876 1240.132)" fill="none" stroke="#44ab96" stroke-linecap="round" stroke-linejoin="round" stroke-miterlimit="10" stroke-width="10.947"/>
          <path id="Shape-40" data-name="Shape" d="M.421,0V188.116" transform="translate(45.074 333.292)" fill="none" stroke="#44ab96" stroke-linecap="round" stroke-linejoin="round" stroke-miterlimit="10" stroke-width="10.947"/>
          <path id="Shape-41" data-name="Shape" d="M0,.421H387.477" transform="translate(445.752 1442.651)" fill="none" stroke="#44ab96" stroke-linecap="round" stroke-linejoin="round" stroke-miterlimit="10" stroke-width="10.947"/>
          <path id="Shape-42" data-name="Shape" d="M.421,0V155.4" transform="translate(1112.426 765.754)" fill="none" stroke="#44ab96" stroke-linecap="round" stroke-linejoin="round" stroke-miterlimit="10" stroke-width="10.947"/>
          <path id="Shape-43" data-name="Shape" d="M.421,0V63.387" transform="translate(954.982 1187.991)" fill="none" stroke="#44ab96" stroke-linecap="round" stroke-linejoin="round" stroke-miterlimit="10" stroke-width="10.947"/>
          <path id="Shape-44" data-name="Shape" d="M211.63,48.993V69.725a53.035,53.035,0,0,1-53.1,52.959h0a53.037,53.037,0,0,1-53.119-52.959V52.55A52.629,52.629,0,0,0,52.71,0h0A52.632,52.632,0,0,0,0,52.55V73.691" transform="translate(1302.497 349.65)" fill="none" stroke="#e53855" stroke-linecap="round" stroke-linejoin="round" stroke-miterlimit="10" stroke-width="10.947"/>
          <path id="Shape-45" data-name="Shape" d="M0,74.6A74.619,74.619,0,0,1,74.633,0h0a74.623,74.623,0,0,1,74.633,74.611v54.242a74.621,74.621,0,0,1-74.633,74.6h0A74.622,74.622,0,0,1,0,128.838Z" transform="translate(1113.359 1240.132)" fill="none" stroke="#4484ab" stroke-linecap="round" stroke-linejoin="round" stroke-miterlimit="10" stroke-width="10.947"/>
          <g id="Group_30" data-name="Group 30" transform="translate(316.863 601.152)">
            <path id="Shape-46" data-name="Shape" d="M0,0V65.723c0,80.051,64.818,144.952,144.787,144.952h57.668a87.232,87.232,0,0,1,87.119,87.218h0" transform="translate(92.864)" fill="none" stroke="#da774a" stroke-linecap="round" stroke-linejoin="round" stroke-miterlimit="10" stroke-width="10.947"/>
            <path id="Shape-47" data-name="Shape" d="M267.176,0H83.725C37.485,0,0,37.287,0,83.282s37.485,83.282,83.725,83.282H159.44" transform="translate(115.261 385.981)" fill="none" stroke="#da774a" stroke-linecap="round" stroke-linejoin="round" stroke-miterlimit="10" stroke-width="10.947"/>
            <path id="Shape-48" data-name="Shape" d="M69.37,203.4H58.431a58.49,58.49,0,1,1,0-116.979H188.867A86.37,86.37,0,0,0,275.188,0" transform="translate(0.059 639.03)" fill="none" stroke="#da774a" stroke-linecap="round" stroke-linejoin="round" stroke-miterlimit="10" stroke-width="10.947"/>
          </g>
        </g>
      </g>
    </g>
  </g>
</svg>
