<svg xmlns="http://www.w3.org/2000/svg" width="34.961" height="22.725" viewBox="0 0 34.961 22.725">
  <defs>
    <style>
      .cls-777 {
        fill: rgba(0,0,0,0.6);
      }
    </style>
  </defs>
  <path id="braille" class="cls-777" d="M6.992,44.236a3.5,3.5,0,1,1-3.5-3.5A3.5,3.5,0,0,1,6.992,44.236ZM3.5,51.229a1.748,1.748,0,1,0,1.748,1.748A1.748,1.748,0,0,0,3.5,51.229ZM3.5,32a3.5,3.5,0,1,0,3.5,3.5A3.5,3.5,0,0,0,3.5,32Zm8.74,10.488a1.748,1.748,0,1,0,1.748,1.748A1.748,1.748,0,0,0,12.236,42.488Zm0,8.74a1.748,1.748,0,1,0,1.748,1.748A1.748,1.748,0,0,0,12.236,51.229Zm0-19.229a3.5,3.5,0,1,0,3.5,3.5A3.5,3.5,0,0,0,12.236,32ZM24.473,42.488a1.748,1.748,0,1,0,1.748,1.748A1.748,1.748,0,0,0,24.473,42.488Zm0,8.74a1.748,1.748,0,1,0,1.748,1.748A1.748,1.748,0,0,0,24.473,51.229Zm0-19.229a3.5,3.5,0,1,0,3.5,3.5A3.5,3.5,0,0,0,24.473,32Zm8.74,10.488a1.748,1.748,0,1,0,1.748,1.748A1.748,1.748,0,0,0,33.213,42.488Zm0,8.74a1.748,1.748,0,1,0,1.748,1.748A1.748,1.748,0,0,0,33.213,51.229Zm0-17.481A1.748,1.748,0,1,0,34.961,35.5,1.748,1.748,0,0,0,33.213,33.748Z" transform="translate(0 -32)"/>
</svg>
