<svg xmlns="http://www.w3.org/2000/svg" width="61.4" height="61.4" viewBox="0 0 61.4 61.4">
  <defs>
    <style>
      .cls-1 {
        fill: #2232ff;
      }

      .cls-2, .cls-3, .cls-4 {
        fill: #fff;
      }

      .cls-2 {
        font-size: 13.76px;
      }

      .cls-2, .cls-3 {
        font-family: AvenirNextLTPro-Bold, Avenir Next LT Pro;
        font-weight: 700;
      }

      .cls-3 {
        font-size: 4.32px;
      }
    </style>
  </defs>
  <g id="exotic2" transform="translate(-10.1 -6.5)">
    <g id="Groupe_626" data-name="Groupe 626">
      <g id="Groupe_624" data-name="Groupe 624">
        <rect id="Rectangle_482" data-name="Rectangle 482" class="cls-1" width="61.4" height="61.4" transform="translate(10.1 6.5)"/>
      </g>
      <text id="_-" data-name="-" class="cls-2" transform="translate(37.826 54.897) rotate(-0.026)"><tspan x="0" y="0">-</tspan></text>
      <g id="Groupe_625" data-name="Groupe 625">
        <text id="_.co" data-name=".co" class="cls-3" transform="translate(39.642 62.46) rotate(-0.026)"><tspan x="0" y="0">.co</tspan></text>
        <path id="Tracé_310" data-name="Tracé 310" class="cls-4" d="M13.9,44V34.3h6.6v2H16.2v1.8h4V40h-4v2h4.5v2Z"/>
        <path id="Tracé_311" data-name="Tracé 311" class="cls-4" d="M26.4,44l-1.5-2.1L23.4,44H20.8l2.7-3.6L21,37.1h2.6L25,39l1.3-1.8h2.5l-2.5,3.3L29,44.1Z"/>
        <path id="Tracé_312" data-name="Tracé 312" class="cls-4" d="M31.8,44.2a3.653,3.653,0,1,1,0-7.3,3.573,3.573,0,0,1,3.8,3.6A3.653,3.653,0,0,1,31.8,44.2Zm0-5.4a1.6,1.6,0,0,0-1.6,1.7,1.689,1.689,0,0,0,1.6,1.8,1.627,1.627,0,0,0,1.6-1.8A1.6,1.6,0,0,0,31.8,38.8Z"/>
        <path id="Tracé_313" data-name="Tracé 313" class="cls-4" d="M19,47.2v7.7H16.6V47.2H13.8v-2h7.9v2Z"/>
        <path id="Tracé_314" data-name="Tracé 314" class="cls-4" d="M26.6,54.9V51.2c0-.8-.2-1.4-1-1.4s-1.2.6-1.2,1.5V55H22.1V45.3h2.3v3.8h0a2.155,2.155,0,0,1,2-1.1c1.9,0,2.5,1.4,2.5,2.8V55Z"/>
        <path id="Tracé_315" data-name="Tracé 315" class="cls-4" d="M36.5,51.9h-5a1.533,1.533,0,0,0,1.6,1.3,1.806,1.806,0,0,0,1.5-.7l1.6,1A3.614,3.614,0,0,1,33.1,55a3.517,3.517,0,0,1-3.8-3.6A3.572,3.572,0,0,1,33,47.7c2,0,3.4,1.4,3.4,3.7A.749.749,0,0,1,36.5,51.9Zm-2.1-1.4a1.26,1.26,0,0,0-1.3-1.3,1.544,1.544,0,0,0-1.6,1.3Z"/>
        <path id="Tracé_316" data-name="Tracé 316" class="cls-4" d="M23.1,62.5V58.8c0-.8-.2-1.4-1-1.4s-1.1.7-1.1,1.5v3.7H18.7V58.7c0-.8-.3-1.3-1-1.3s-1.1.6-1.1,1.5v3.7H14.3V55.7h2.2v.9h0a2.212,2.212,0,0,1,2.1-1.1,2.149,2.149,0,0,1,2.1,1.2,2.609,2.609,0,0,1,2.2-1.2c1.9,0,2.5,1.5,2.5,2.8v4.2Z"/>
        <path id="Tracé_317" data-name="Tracé 317" class="cls-4" d="M33.1,59.4h-5a1.533,1.533,0,0,0,1.6,1.3,1.806,1.806,0,0,0,1.5-.7l1.6,1a3.614,3.614,0,0,1-3.1,1.5,3.517,3.517,0,0,1-3.8-3.6,3.572,3.572,0,0,1,3.7-3.7c2,0,3.4,1.4,3.4,3.7A1.087,1.087,0,0,1,33.1,59.4ZM31,58a1.26,1.26,0,0,0-1.3-1.3A1.544,1.544,0,0,0,28.1,58Z"/>
        <path id="Tracé_318" data-name="Tracé 318" class="cls-4" d="M37.7,57.4a2.513,2.513,0,0,0-1.4-.6c-.4,0-.9.2-.9.6s.4.5,1.3.7c1,.2,2.2.8,2.2,2.1,0,1.7-1.5,2.3-2.9,2.3a4.426,4.426,0,0,1-3-1.1l1.3-1.3a2.491,2.491,0,0,0,1.7.8c.4,0,.8-.2.8-.6s-.4-.6-1.4-.8c-.9-.2-2-.7-2-2,0-1.6,1.5-2.3,2.8-2.3a4.019,4.019,0,0,1,2.8,1Z"/>
      </g>
    </g>
  </g>
</svg>
